<svg width="175" height="64" viewBox="0 0 175 64" fill="none" xmlns="http://www.w3.org/2000/svg">
<path d="M173.07 0H169.732V24.3826H173.07V0Z" fill="#001081"/>
<mask id="mask0_11_36008" style="mask-type:luminance" maskUnits="userSpaceOnUse" x="0" y="0" width="175" height="64">
<path d="M174.261 0H0V63.754H174.261V0Z" fill="white"/>
</mask>
<g mask="url(#mask0_11_36008)">
<path d="M171.26 30.5683C171.209 30.4612 171.181 30.3441 171.179 30.2252C171.176 30.1008 171.201 29.9773 171.252 29.8637C171.302 29.7501 171.378 29.6494 171.473 29.5689C171.567 29.5197 171.67 29.4921 171.776 29.4881C171.882 29.4842 171.988 29.504 172.085 29.546C172.502 29.7038 172.901 29.905 173.276 30.1463L174.261 28.3065C172.868 27.5609 171.428 26.7902 169.997 28.0641C169.669 28.3903 169.422 28.7888 169.276 29.2276C169.129 29.6664 169.088 30.1334 169.154 30.5912C169.162 30.6501 169.158 30.7101 169.141 30.7672C169.124 30.8243 169.096 30.8771 169.057 30.9222C169.018 30.9672 168.97 31.0034 168.916 31.0284C168.862 31.0533 168.803 31.0665 168.744 31.0669H168.55V33.156H174.257V31.0691H172.287C172.087 31.0889 171.885 31.053 171.703 30.9654C171.521 30.8779 171.368 30.7421 171.258 30.5729" fill="#001081"/>
<path d="M113.039 7.09425V10.4321C114.445 10.4526 115.786 11.0254 116.773 12.0267C117.76 13.028 118.313 14.3773 118.313 15.783C118.313 17.1888 117.76 18.5381 116.773 19.5394C115.786 20.5406 114.445 21.1134 113.039 21.134H106.02V24.4718H113.039C115.344 24.4718 117.555 23.5562 119.185 21.9264C120.814 20.2967 121.73 18.0862 121.73 15.7813C121.73 13.4765 120.814 11.266 119.185 9.63621C117.555 8.00642 115.344 7.09082 113.039 7.09082" fill="#001081"/>
<path d="M157.749 7.08962H147.563V10.432H157.749C159.156 10.432 160.506 10.9912 161.502 11.9866C162.497 12.9819 163.056 14.3319 163.056 15.7395C163.056 17.1472 162.497 18.4972 161.502 19.4925C160.506 20.4878 159.156 21.047 157.749 21.047H128.402V0H125.064V22.7154C125.064 23.1582 125.24 23.5828 125.553 23.8959C125.867 24.209 126.291 24.3849 126.734 24.3849H157.748C160.023 24.3587 162.197 23.4363 163.797 21.8179C165.397 20.1994 166.294 18.0153 166.294 15.7395C166.294 13.4637 165.397 11.2797 163.797 9.66121C162.197 8.04274 160.023 7.12037 157.748 7.0942" fill="#001081"/>
<path d="M157.222 27.3799C156.808 27.3799 156.403 27.5027 156.058 27.7327C155.714 27.9628 155.446 28.2898 155.287 28.6724C155.129 29.055 155.087 29.4759 155.168 29.8821C155.249 30.2882 155.448 30.6613 155.741 30.9541C156.034 31.2469 156.407 31.4463 156.813 31.5271C157.219 31.6079 157.64 31.5664 158.023 31.408C158.405 31.2495 158.732 30.9811 158.963 30.6368C159.193 30.2925 159.315 29.8877 159.315 29.4736C159.315 29.1987 159.261 28.9264 159.156 28.6724C159.051 28.4184 158.897 28.1875 158.702 27.9931C158.508 27.7987 158.277 27.6445 158.023 27.5393C157.769 27.434 157.497 27.3799 157.222 27.3799Z" fill="#001081"/>
<path d="M94.4522 6.86133C92.7334 6.86133 91.0532 7.37101 89.624 8.32594C88.1949 9.28086 87.081 10.6381 86.4232 12.2261C85.7655 13.8141 85.5934 15.5615 85.9287 17.2473C86.264 18.9331 87.0917 20.4816 88.3071 21.6969C89.5225 22.9123 91.071 23.74 92.7568 24.0754C94.4426 24.4107 96.19 24.2386 97.7779 23.5808C99.3659 22.923 100.723 21.8092 101.678 20.38C102.633 18.9509 103.143 17.2707 103.143 15.5518C103.14 13.2477 102.224 11.0387 100.595 9.40939C98.9654 7.78013 96.7563 6.86375 94.4522 6.86133ZM94.4522 20.9022C93.3938 20.9022 92.3591 20.5884 91.4791 20.0003C90.599 19.4123 89.9131 18.5765 89.508 17.5986C89.103 16.6208 88.997 15.5448 89.2035 14.5067C89.41 13.4686 89.9197 12.515 90.6681 11.7666C91.4165 11.0182 92.3701 10.5085 93.4082 10.302C94.4463 10.0955 95.5223 10.2015 96.5001 10.6065C97.478 11.0116 98.3138 11.6975 98.9019 12.5775C99.4899 13.4576 99.8038 14.4923 99.8038 15.5507C99.8022 16.9695 99.2379 18.3298 98.2346 19.3331C97.2314 20.3364 95.8711 20.9007 94.4522 20.9022Z" fill="#001081"/>
<path d="M96.705 4.18648C97.1191 4.18648 97.5239 4.06368 97.8683 3.83362C98.2126 3.60356 98.4809 3.27656 98.6394 2.89398C98.7979 2.51141 98.8393 2.09043 98.7585 1.68428C98.6777 1.27814 98.4783 0.905075 98.1855 0.612262C97.8927 0.31945 97.5197 0.120042 97.1135 0.0392547C96.7074 -0.0415321 96.2864 -6.93906e-05 95.9038 0.1584C95.5212 0.316869 95.1942 0.585227 94.9642 0.929538C94.7341 1.27385 94.6113 1.67865 94.6113 2.09275C94.6113 2.3677 94.6655 2.63996 94.7707 2.89398C94.8759 3.14801 95.0301 3.37882 95.2246 3.57324C95.419 3.76766 95.6498 3.92188 95.9038 4.0271C96.1578 4.13232 96.4301 4.18648 96.705 4.18648Z" fill="#001081"/>
<path d="M91.2799 4.18647C91.6941 4.18693 92.0992 4.06449 92.4439 3.83465C92.7885 3.60481 93.0572 3.27791 93.216 2.8953C93.3748 2.5127 93.4165 2.09159 93.3359 1.68527C93.2553 1.27894 93.0559 0.905663 92.7631 0.612667C92.4703 0.319671 92.0971 0.120126 91.6908 0.0392828C91.2845 -0.0415605 90.8634 -6.82659e-05 90.4807 0.158509C90.098 0.317086 89.771 0.585621 89.5409 0.930132C89.3109 1.27464 89.1883 1.67965 89.1885 2.09389C89.1885 2.64918 89.4091 3.18173 89.8017 3.57438C90.1944 3.96703 90.7269 4.18762 91.2822 4.18762" fill="#001081"/>
<path d="M103.614 63.7533V60.4154C104.678 60.4142 105.699 59.991 106.451 59.2385C107.203 58.4861 107.627 57.4659 107.628 56.4018V40.2432H110.966V56.4018C110.964 58.3509 110.188 60.2195 108.81 61.5977C107.432 62.9759 105.563 63.7511 103.614 63.7533Z" fill="#001081"/>
<path d="M111.39 35.2441C111.39 35.6582 111.267 36.063 111.037 36.4073C110.807 36.7516 110.48 37.02 110.097 37.1785C109.715 37.3369 109.294 37.3784 108.887 37.2976C108.481 37.2168 108.108 37.0174 107.815 36.7246C107.523 36.4318 107.323 36.0587 107.242 35.6526C107.162 35.2464 107.203 34.8255 107.362 34.4429C107.52 34.0603 107.788 33.7333 108.133 33.5032C108.477 33.2732 108.882 33.1504 109.296 33.1504C109.851 33.1504 110.384 33.371 110.776 33.7636C111.169 34.1563 111.39 34.6888 111.39 35.2441Z" fill="#001081"/>
<path d="M149.039 33.1504V42.0993C147.391 40.7987 145.326 40.1427 143.23 40.2537C140.977 40.3851 138.863 41.3878 137.337 43.0496C135.81 44.7115 134.989 46.9022 135.048 49.1583C135.108 51.4144 136.043 53.5589 137.655 55.1381C139.267 56.7173 141.431 57.6073 143.688 57.6199C145.358 57.6208 146.992 57.1361 148.392 56.2248C148.454 56.1835 148.527 56.1597 148.602 56.1561C148.676 56.1525 148.751 56.1691 148.817 56.2042C148.883 56.2393 148.938 56.2917 148.977 56.3557C149.016 56.4197 149.037 56.493 149.038 56.5679V57.5284H152.379V33.1504H149.039ZM143.688 54.2832C142.629 54.2832 141.594 53.9693 140.714 53.3813C139.834 52.7933 139.148 51.9575 138.743 50.9796C138.338 50.0017 138.232 48.9257 138.439 47.8876C138.645 46.8495 139.155 45.896 139.903 45.1476C140.652 44.3991 141.605 43.8895 142.644 43.683C143.682 43.4765 144.758 43.5825 145.735 43.9875C146.713 44.3926 147.549 45.0785 148.137 45.9585C148.725 46.8386 149.039 47.8732 149.039 48.9317C149.038 50.3505 148.473 51.7108 147.47 52.7141C146.467 53.7174 145.106 54.2817 143.688 54.2832Z" fill="#001081"/>
<path d="M173.072 48.4975C172.978 46.5845 172.256 44.7559 171.017 43.2954C169.778 41.8349 168.091 40.8242 166.219 40.4203C164.347 40.0163 162.394 40.2416 160.663 41.0613C158.932 41.8809 157.52 43.2491 156.646 44.9533C155.772 46.6576 155.485 48.6027 155.829 50.4867C156.174 52.3708 157.131 54.0884 158.551 55.373C159.972 56.6576 161.777 57.4373 163.686 57.5912C165.595 57.7451 167.502 57.2645 169.11 56.2241C169.172 56.1827 169.245 56.159 169.319 56.1553C169.394 56.1517 169.469 56.1683 169.535 56.2034C169.601 56.2386 169.656 56.2909 169.695 56.3549C169.734 56.4189 169.755 56.4922 169.756 56.5671V57.5276H173.072V48.4975ZM164.404 54.2813C163.346 54.2813 162.311 53.9674 161.431 53.3794C160.551 52.7913 159.865 51.9555 159.46 50.9777C159.055 49.9998 158.949 48.9238 159.156 47.8857C159.362 46.8476 159.872 45.8941 160.62 45.1456C161.369 44.3972 162.322 43.8875 163.36 43.6811C164.398 43.4746 165.474 43.5805 166.452 43.9856C167.43 44.3906 168.266 45.0766 168.854 45.9566C169.442 46.8367 169.756 47.8713 169.756 48.9297C169.754 50.3486 169.19 51.7089 168.187 52.7122C167.183 53.7155 165.823 54.2798 164.404 54.2813Z" fill="#001081"/>
<path d="M131.66 48.4983C131.566 46.585 130.844 44.756 129.605 43.2952C128.366 41.8344 126.679 40.8235 124.806 40.4194C122.934 40.0153 120.98 40.2406 119.249 41.0604C117.518 41.8801 116.105 43.2485 115.231 44.953C114.357 46.6575 114.07 48.603 114.415 50.4873C114.76 52.3716 115.717 54.0895 117.138 55.3742C118.558 56.659 120.364 57.4388 122.273 57.5926C124.182 57.7464 126.089 57.2656 127.697 56.2248C127.76 56.1835 127.832 56.1597 127.907 56.1561C127.982 56.1525 128.056 56.1691 128.123 56.2042C128.189 56.2393 128.244 56.2917 128.283 56.3557C128.322 56.4197 128.343 56.493 128.344 56.5679V57.5284H131.66V48.4983ZM122.992 54.2821C121.934 54.2821 120.899 53.9682 120.019 53.3802C119.139 52.7921 118.453 51.9563 118.048 50.9785C117.643 50.0006 117.537 48.9246 117.743 47.8865C117.95 46.8484 118.459 45.8948 119.208 45.1464C119.956 44.398 120.91 43.8883 121.948 43.6818C122.986 43.4753 124.062 43.5813 125.04 43.9864C126.018 44.3914 126.854 45.0773 127.442 45.9574C128.03 46.8374 128.344 47.8721 128.344 48.9305C128.342 50.3494 127.778 51.7097 126.774 52.713C125.771 53.7162 124.411 54.2805 122.992 54.2821Z" fill="#001081"/>
<path d="M93.9976 57.6176C93.692 57.6173 93.3867 57.6012 93.0828 57.5696C90.8774 57.3261 88.8487 56.2482 87.4125 54.557C85.9762 52.8657 85.2413 50.6892 85.3583 48.4735C85.4753 46.2578 86.4353 44.1707 88.0416 42.6401C89.6479 41.1095 91.7788 40.2512 93.9976 40.2412C98.408 40.2412 102.624 43.579 102.624 49.7756H88.7044C88.8713 50.8114 89.3387 51.7754 90.0486 52.5479C90.7585 53.3204 91.6797 53.8674 92.6978 54.1209C93.7158 54.3745 94.7859 54.3235 95.7753 53.9742C96.7646 53.625 97.6296 52.9929 98.2628 52.1563L100.924 54.1723C100.116 55.2449 99.0701 56.1147 97.8681 56.7125C96.666 57.3104 95.3412 57.6199 93.9987 57.6165M89.2521 46.4366H98.7305C98.274 45.5757 97.5917 44.8554 96.7567 44.353C95.9217 43.8507 94.9657 43.5852 93.9913 43.5852C93.0169 43.5852 92.0608 43.8507 91.2258 44.353C90.3909 44.8554 89.7086 45.5757 89.2521 46.4366Z" fill="#001081"/>
<path d="M58.7055 39.9079C57.3224 43.2245 55.105 46.1271 52.2686 48.3334C49.4323 50.5398 46.0734 51.975 42.5184 52.4996C38.9634 53.0242 35.3332 52.6203 31.9804 51.3272C28.6277 50.0341 25.6664 47.8957 23.3843 45.1199C21.0688 45.9455 17.6749 47.0878 17.4999 47.1473C18.1003 46.6236 18.7086 46.1102 19.3295 45.6139C20.7779 44.4529 22.2751 43.3704 23.8211 42.3664C30.7597 37.835 38.6257 34.9162 46.8407 33.8245L44.397 21.3948C38.5032 22.8812 32.84 25.166 27.5649 28.186C24.465 29.9432 21.5195 31.9599 18.7601 34.2145C18.3619 30.7049 18.8625 27.1518 20.2148 23.8889C21.5671 20.626 23.7266 17.7604 26.4906 15.5613C29.2545 13.3623 32.5322 11.902 36.0155 11.3176C39.4989 10.7332 43.0736 11.044 46.4039 12.2206L52.6462 2.85889C47.0102 0.294921 40.7493 -0.571186 34.629 0.366478C28.5087 1.30414 22.7942 4.00494 18.1844 8.1386C13.5746 12.2723 10.2692 17.6596 8.67249 23.6419C7.07575 29.6243 7.25685 35.9422 9.19364 41.8232C9.33357 42.2592 9.36283 42.7232 9.2788 43.1733C9.19476 43.6235 9.00006 44.0456 8.71223 44.4018C5.1973 48.8248 2.26895 53.6838 0 58.8578L5.42471 61.8548C7.47145 58.2949 9.89095 54.9627 12.6424 51.9145C12.7739 51.7648 12.9365 51.6455 13.1188 51.565C13.3011 51.4844 13.4987 51.4446 13.698 51.4482C13.8973 51.4518 14.0934 51.4987 14.2726 51.5858C14.4519 51.6728 14.6101 51.7979 14.7361 51.9522C18.0641 56.0605 22.3627 59.2755 27.244 61.3069C32.1252 63.3384 37.4355 64.1224 42.6956 63.5881C47.9556 63.0539 52.9999 61.2183 57.373 58.247C61.7462 55.2757 65.3107 51.2622 67.7448 46.5687L58.7055 39.9079Z" fill="#001081"/>
<path d="M69.3646 26.6315C69.3646 28.2678 68.8794 29.8673 67.9704 31.2278C67.0613 32.5883 65.7692 33.6487 64.2575 34.2749C62.7458 34.9011 61.0823 35.0649 59.4775 34.7457C57.8727 34.4265 56.3985 33.6385 55.2415 32.4815C54.0845 31.3245 53.2965 29.8504 52.9773 28.2455C52.6581 26.6407 52.8219 24.9773 53.4481 23.4655C54.0743 21.9538 55.1347 20.6617 56.4952 19.7527C57.8557 18.8436 59.4552 18.3584 61.0915 18.3584C63.2857 18.3584 65.39 19.23 66.9415 20.7815C68.493 22.3331 69.3646 24.4374 69.3646 26.6315Z" fill="#001081"/>
</g>
</svg>
