<svg width="16" height="16" viewBox="0 0 16 16" fill="none" xmlns="http://www.w3.org/2000/svg">
<g clip-path="url(#clip0_40000007_518)">
<path d="M11.3335 2.22627C12.339 2.80684 13.1755 3.63995 13.76 4.64314C14.3446 5.64632 14.6571 6.78478 14.6664 7.94583C14.6758 9.10687 14.3818 10.2502 13.8135 11.2627C13.2452 12.2752 12.4223 13.1217 11.4263 13.7185C10.4303 14.3152 9.29574 14.6415 8.1349 14.665C6.97405 14.6885 5.8272 14.4084 4.80787 13.8524C3.78854 13.2965 2.93208 12.484 2.32327 11.4953C1.71447 10.5066 1.37444 9.37608 1.33683 8.2156L1.3335 7.9996L1.33683 7.7836C1.37416 6.63226 1.70919 5.51024 2.30926 4.52693C2.90932 3.54362 3.75393 2.73257 4.76076 2.17286C5.76758 1.61314 6.90226 1.32387 8.05417 1.33323C9.20607 1.34259 10.3359 1.65027 11.3335 2.22627ZM8.00683 9.9996L7.92216 10.0043C7.76013 10.0235 7.61079 10.1016 7.50244 10.2236C7.39408 10.3456 7.33424 10.5031 7.33424 10.6663C7.33424 10.8294 7.39408 10.987 7.50244 11.109C7.61079 11.231 7.76013 11.309 7.92216 11.3283L8.00016 11.3329L8.08483 11.3283C8.24686 11.309 8.3962 11.231 8.50455 11.109C8.61291 10.987 8.67275 10.8294 8.67275 10.6663C8.67275 10.5031 8.61291 10.3456 8.50455 10.2236C8.3962 10.1016 8.24686 10.0235 8.08483 10.0043L8.00683 9.9996ZM8.00016 4.66627C7.83687 4.66629 7.67927 4.72624 7.55725 4.83475C7.43522 4.94325 7.35727 5.09277 7.33816 5.25494L7.3335 5.33294V7.9996L7.33816 8.0776C7.35744 8.23964 7.43547 8.38897 7.55747 8.49733C7.67948 8.60568 7.83699 8.66553 8.00016 8.66553C8.16334 8.66553 8.32085 8.60568 8.44285 8.49733C8.56486 8.38897 8.64289 8.23964 8.66216 8.0776L8.66683 7.9996V5.33294L8.66216 5.25494C8.64306 5.09277 8.5651 4.94325 8.44308 4.83475C8.32105 4.72624 8.16345 4.66629 8.00016 4.66627Z" fill="#ED696A"/>
</g>
<defs>
<clipPath id="clip0_40000007_518">
<rect width="16" height="16" fill="white"/>
</clipPath>
</defs>
</svg>
