<svg width="46" height="46" viewBox="0 0 46 46" fill="none" xmlns="http://www.w3.org/2000/svg">
<path d="M0 23C0 10.2975 10.2975 0 23 0C35.7025 0 46 10.2975 46 23C46 35.7025 35.7025 46 23 46C10.2975 46 0 35.7025 0 23Z" fill="#F2F4FF"/>
<mask id="mask0_2683_74092" style="mask-type:alpha" maskUnits="userSpaceOnUse" x="15" y="13" width="16" height="20">
<path d="M17 13C15.89 13 15 13.9 15 15V31C15 31.5304 15.2107 32.0391 15.5858 32.4142C15.9609 32.7893 16.4696 33 17 33H29C29.5304 33 30.0391 32.7893 30.4142 32.4142C30.7893 32.0391 31 31.5304 31 31V19L25 13H17ZM24 14.5L29.5 20H24V14.5ZM19.93 23.22H27V30.29L24.88 28.17L22.05 31L19.22 28.17L22.05 25.35" fill="#9E9E9E"/>
</mask>
<g mask="url(#mask0_2683_74092)">
<rect x="11" y="11" width="24" height="24" fill="#001081"/>
</g>
</svg>
