<svg width="20" height="21" viewBox="0 0 20 21" fill="none" xmlns="http://www.w3.org/2000/svg">
<g clip-path="url(#clip0_40000007_764)">
<path d="M14.1665 3.53748C15.4234 4.26319 16.469 5.30458 17.1997 6.55856C17.9304 7.81254 18.321 9.23562 18.3327 10.6869C18.3444 12.1382 17.9769 13.5674 17.2665 14.8331C16.5561 16.0987 15.5275 17.1568 14.2825 17.9027C13.0375 18.6487 11.6193 19.0565 10.1683 19.0859C8.7172 19.1152 7.28363 18.7651 6.00947 18.0702C4.7353 17.3752 3.66473 16.3596 2.90373 15.1237C2.14272 13.8879 1.71768 12.4747 1.67067 11.0241L1.6665 10.7541L1.67067 10.4841C1.71734 9.04497 2.13613 7.64244 2.8862 6.4133C3.63628 5.18416 4.69205 4.17035 5.95058 3.47071C7.20911 2.77107 8.62746 2.40947 10.0673 2.42117C11.5072 2.43287 12.9195 2.81747 14.1665 3.53748ZM9.99984 9.92081H9.1665L9.069 9.92664C8.85809 9.95173 8.66472 10.0564 8.52839 10.2193C8.39207 10.3822 8.32308 10.5909 8.33553 10.803C8.34797 11.015 8.44092 11.2143 8.59536 11.3601C8.74981 11.5059 8.9541 11.5872 9.1665 11.5875V14.0875L9.17234 14.185C9.19622 14.3877 9.29366 14.5746 9.44619 14.7102C9.59872 14.8458 9.79573 14.9208 9.99984 14.9208H10.8332L10.9307 14.915C11.1334 14.8911 11.3203 14.7936 11.4559 14.6411C11.5915 14.4886 11.6665 14.2916 11.6665 14.0875L11.6607 13.99C11.6387 13.804 11.5548 13.6308 11.4223 13.4983C11.2899 13.3659 11.1167 13.2819 10.9307 13.26L10.8332 13.2541V10.7541L10.8273 10.6566C10.8035 10.4539 10.706 10.267 10.5535 10.1314C10.401 9.99577 10.2039 9.92084 9.99984 9.92081ZM10.0082 6.58748L9.90234 6.59331C9.69142 6.6184 9.49805 6.72307 9.36172 6.88595C9.2254 7.04883 9.15641 7.25761 9.16886 7.46965C9.18131 7.68168 9.27425 7.88096 9.4287 8.02677C9.58314 8.17258 9.78744 8.25391 9.99984 8.25414L10.1057 8.24831C10.3166 8.22322 10.51 8.11855 10.6463 7.95567C10.7826 7.79279 10.8516 7.58401 10.8391 7.37197C10.8267 7.15994 10.7338 6.96066 10.5793 6.81485C10.4249 6.66904 10.2206 6.58771 10.0082 6.58748Z" fill="#A3A3A8"/>
</g>
<defs>
<clipPath id="clip0_40000007_764">
<rect width="20" height="20" fill="white" transform="translate(0 0.753906)"/>
</clipPath>
</defs>
</svg>
