<svg width="16" height="17" viewBox="0 0 16 17" fill="none" xmlns="http://www.w3.org/2000/svg">
<path d="M5.84295 9.55915C5.68753 9.55915 5.55732 9.5066 5.45234 9.4015C5.34737 9.29641 5.29488 9.16618 5.29488 9.01082V4.23592L3.60058 5.93022C3.50169 6.03144 3.37808 6.08205 3.22975 6.08205C3.08141 6.08205 2.95054 6.02961 2.83713 5.92471C2.7237 5.81028 2.66699 5.67948 2.66699 5.53231C2.66699 5.38515 2.7237 5.25486 2.83713 5.14145L5.3736 2.60498C5.44202 2.53655 5.51451 2.48828 5.59106 2.46015C5.66761 2.43203 5.74963 2.41797 5.83712 2.41797C5.9246 2.41797 6.00771 2.43213 6.08644 2.46047C6.16518 2.48881 6.2383 2.53698 6.30578 2.60498L8.86053 5.15973C8.96926 5.26846 9.02293 5.39453 9.02153 5.53794C9.02011 5.68136 8.9627 5.81028 8.84929 5.92471C8.73588 6.02961 8.60747 6.08393 8.46406 6.08768C8.32064 6.09144 8.19222 6.0366 8.0788 5.92318L6.39154 4.23592V9.01786C6.39154 9.17122 6.33897 9.29978 6.23384 9.40353C6.12869 9.50728 5.99839 9.55915 5.84295 9.55915ZM9.99706 15.7513C9.90958 15.7513 9.82648 15.7371 9.74775 15.7088C9.669 15.6805 9.59589 15.6323 9.52841 15.5643L6.97365 13.0095C6.86492 12.9008 6.81126 12.7748 6.81266 12.6313C6.81407 12.4879 6.87148 12.359 6.9849 12.2446C7.09831 12.1397 7.22672 12.0853 7.37013 12.0816C7.51354 12.0778 7.64196 12.1327 7.75538 12.2461L9.44264 13.9334V9.15143C9.44264 8.99807 9.49521 8.8695 9.60035 8.76574C9.7055 8.66199 9.83579 8.61012 9.99123 8.61012C10.1467 8.61012 10.2769 8.66267 10.3818 8.76777C10.4868 8.87287 10.5393 9.0031 10.5393 9.15845V13.9334L12.2336 12.2391C12.3325 12.1378 12.4561 12.0872 12.6044 12.0872C12.7528 12.0872 12.8836 12.1397 12.9971 12.2446C13.1105 12.359 13.1672 12.4898 13.1672 12.637C13.1672 12.7841 13.1105 12.9144 12.9971 13.0278L10.4606 15.5643C10.3922 15.6327 10.3197 15.681 10.2431 15.7091C10.1666 15.7372 10.0846 15.7513 9.99706 15.7513Z" fill="black"/>
</svg>
